<?xml version="1.0" standalone="no"?>
<!DOCTYPE svg PUBLIC "-//W3C//DTD SVG 20010904//EN"
 "http://www.w3.org/TR/2001/REC-SVG-20010904/DTD/svg10.dtd">
<svg version="1.0" xmlns="http://www.w3.org/2000/svg"
 width="580.000000pt" height="580.000000pt" viewBox="0 0 580.000000 580.000000"
 preserveAspectRatio="xMidYMid meet">
<metadata>
Created by potrace 1.11, written by Peter Selinger 2001-2013
</metadata>
<g transform="translate(0.000000,580.000000) scale(0.100000,-0.100000)"
fill="#000000" stroke="none">
<path d="M3889 5763 c-12 -14 -12 -16 0 -8 11 6 13 4 8 -9 -4 -9 -3 -15 2 -11
6 3 9 14 8 25 -2 24 -1 24 -18 3z"/>
<path d="M3926 5763 c-6 -14 -5 -15 5 -6 7 7 10 15 7 18 -3 3 -9 -2 -12 -12z"/>
<path d="M3966 5762 c-3 -5 1 -9 9 -9 8 0 12 4 9 9 -3 4 -7 8 -9 8 -2 0 -6 -4
-9 -8z"/>
<path d="M3935 5739 c-4 -6 -5 -12 -2 -15 2 -3 7 2 10 11 7 17 1 20 -8 4z"/>
<path d="M3902 5717 c-7 -8 -9 -17 -6 -20 4 -3 -35 -6 -86 -6 -51 0 -95 -3
-98 -6 -4 -3 -5 -23 -3 -45 2 -36 1 -38 -23 -36 -14 2 -26 0 -26 -4 0 -5 -8
-6 -19 -3 -20 5 -18 19 -25 -214 -2 -40 -6 -76 -9 -80 -4 -3 -7 1 -7 9 0 9 -8
22 -17 29 -15 12 -16 12 -10 -3 3 -10 1 -20 -5 -24 -7 -4 -8 -3 -4 4 4 7 3 12
-2 12 -5 0 -9 7 -9 15 0 8 5 11 10 8 6 -3 7 -1 3 6 -5 7 -2 10 6 9 7 -2 12 3
10 11 -3 12 0 12 12 1 10 -7 16 -8 16 -2 0 6 -6 13 -12 15 -10 4 -10 8 1 15 9
7 10 12 2 16 -6 4 -11 3 -11 -3 0 -5 -11 -8 -24 -5 -15 2 -26 -2 -30 -11 -3
-8 -1 -15 5 -15 6 0 7 -6 2 -12 -12 -20 -14 -48 -3 -48 6 0 10 -8 10 -17 0
-13 -3 -14 -8 -5 -5 6 -9 -22 -10 -64 -2 -58 1 -74 10 -68 10 6 11 5 1 -8 -10
-11 -13 -119 -13 -454 1 -241 1 -525 0 -630 l0 -190 -44 -3 c-24 -1 -47 3 -51
9 -3 5 -1 10 5 10 6 0 8 5 4 12 -5 8 -13 4 -25 -11 l-18 -21 -25 25 c-14 14
-21 25 -16 25 5 0 16 -7 24 -16 15 -14 17 -14 32 0 8 9 20 16 25 16 6 0 6 7 0
18 -11 21 -39 24 -226 24 -64 1 -102 4 -90 9 16 6 17 8 3 8 -9 1 -20 -4 -23
-9 -5 -8 -12 -7 -23 2 -13 11 -14 11 -8 0 6 -10 -2 -13 -31 -12 -60 0 -77 -2
-85 -14 -5 -8 -8 -7 -8 2 0 7 -13 12 -32 12 -24 0 -29 -3 -18 -9 8 -6 18 -7
24 -4 5 3 6 1 2 -6 -4 -6 -11 -9 -15 -7 -4 3 -8 -8 -9 -24 0 -23 3 -28 16 -23
15 4 15 3 2 -6 -17 -12 -43 -15 -36 -3 2 4 0 14 -5 22 -8 12 -9 11 -7 -5 2
-15 -3 -21 -22 -23 -42 -5 -54 -12 -43 -23 5 -5 7 -23 5 -40 -4 -24 -9 -30
-23 -26 -11 3 -19 1 -19 -4 0 -6 -8 -5 -20 1 -14 8 -20 8 -20 0 0 -6 -5 -8
-12 -4 -7 5 -9 2 -5 -9 3 -8 -1 -21 -9 -27 -8 -7 -14 -17 -14 -23 0 -5 9 -2
19 7 14 12 19 14 17 4 -4 -27 -17 -40 -31 -28 -10 8 -14 7 -18 -2 -4 -10 -6
-10 -6 0 -1 6 -6 12 -12 12 -5 0 -7 -5 -3 -12 4 -7 3 -8 -5 -4 -6 4 -9 12 -6
17 4 5 0 9 -7 9 -10 0 -10 2 1 9 11 7 11 9 0 14 -9 3 -10 6 -2 6 6 1 19 -9 27
-21 18 -25 21 -17 6 12 -7 13 -7 21 2 26 6 4 8 3 5 -3 -4 -6 -1 -13 6 -16 7
-3 13 3 13 12 0 11 -9 17 -26 18 -71 3 -131 11 -138 18 -4 4 3 5 16 2 12 -3
20 -1 16 4 -3 5 -12 9 -20 9 -16 0 -19 16 -4 25 5 3 7 12 4 19 -7 19 -194 23
-194 4 0 -10 -2 -10 -8 0 -5 7 -23 12 -40 10 -24 -2 -29 -5 -20 -15 8 -10 7
-12 -4 -8 -12 5 -15 0 -13 -19 2 -14 5 -29 8 -33 3 -5 -8 -8 -24 -8 -17 0 -34
7 -39 15 -8 13 -13 8 -12 -10 0 -3 -23 -5 -51 -5 -46 0 -52 -2 -55 -23 -2 -12
-9 -22 -15 -22 -8 0 -7 -4 2 -9 8 -5 12 -15 9 -23 -7 -18 -69 -22 -80 -6 -4 7
-8 -17 -8 -57 0 -49 -3 -65 -10 -55 -6 9 -10 10 -10 3 0 -6 5 -15 10 -18 6 -4
9 -19 8 -35 -1 -16 -6 -26 -10 -23 -5 2 -6 14 -3 26 5 17 4 19 -4 7 -6 -8 -8
-26 -5 -40 l6 -25 -18 25 c-23 31 -27 53 -8 46 8 -3 14 -1 14 5 0 6 -8 9 -17
7 -10 -2 -17 -10 -15 -16 3 -18 -13 -14 -33 8 -10 11 -14 20 -9 20 5 0 2 4 -6
9 -15 11 -30 5 -30 -10 0 -6 6 -7 13 -3 6 4 9 3 4 -1 -4 -5 11 -19 33 -32 22
-13 40 -32 40 -41 -1 -16 -1 -16 -10 0 -6 10 -19 15 -32 12 -13 -2 -17 -2 -10
2 6 3 9 10 6 15 -3 6 -15 4 -28 -5 -20 -13 -24 -12 -34 4 -7 12 -8 21 -2 25 6
3 10 15 10 26 0 11 -5 17 -10 14 -6 -4 -8 -10 -5 -15 3 -5 2 -11 -2 -13 -5 -3
-8 35 -8 84 0 49 2 89 4 89 2 0 9 -7 16 -17 10 -13 13 -14 20 -2 5 8 5 11 1 7
-4 -3 -16 2 -26 12 -16 16 -19 38 -22 157 -1 76 -7 146 -12 155 -7 11 -6 21 3
32 10 12 11 19 2 30 -7 8 -10 26 -7 41 3 15 2 25 -1 21 -10 -10 -18 -61 -13
-81 7 -28 -1 -54 -15 -49 -10 4 -12 11 -6 23 6 9 6 23 1 31 -4 7 -6 20 -3 29
4 14 3 14 -5 1 -6 -8 -8 -18 -6 -22 3 -4 -2 -5 -11 -2 -13 5 -13 9 -3 22 10
12 10 14 1 8 -10 -6 -13 27 -14 151 -1 87 -1 164 0 171 1 6 -3 12 -9 12 -5 0
-10 5 -10 11 0 5 5 7 10 4 6 -3 10 1 10 10 0 13 -4 14 -20 5 -16 -9 -20 -8
-20 5 0 10 5 13 12 9 6 -4 8 -3 4 4 -3 6 -16 9 -27 7 -15 -3 -19 0 -15 10 3 8
1 15 -5 15 -6 0 -9 -8 -7 -17 2 -10 10 -17 17 -15 7 1 11 -3 8 -10 -2 -7 6
-22 18 -34 l23 -21 -39 0 c-33 0 -36 2 -21 13 16 11 16 13 -1 31 -20 23 -23
63 -4 63 9 0 8 3 -2 9 -8 5 -14 29 -15 62 0 30 -4 52 -8 49 -3 -3 -19 6 -35
20 -20 18 -23 19 -10 4 17 -21 17 -21 -8 -21 -24 0 -26 2 -24 38 4 47 0 51
-48 51 -21 0 -41 4 -44 10 -3 5 -15 11 -25 12 -21 3 -26 28 -6 32 7 1 8 0 2
-3 -17 -8 -11 -19 10 -20 13 -1 18 2 14 9 -5 8 -1 9 12 5 17 -6 17 -6 3 5 -9
7 -14 18 -12 23 5 17 -61 14 -74 -4 -12 -14 -12 -14 -6 3 5 15 3 18 -10 13 -9
-3 -17 -2 -17 2 0 5 -8 7 -17 5 -10 -2 -65 -5 -123 -7 l-105 -3 1 -42 c1 -40
0 -42 -30 -43 -17 -1 -39 0 -49 0 -14 2 -17 -6 -17 -41 0 -66 -2 -77 -17 -82
-10 -4 -11 -1 -4 12 8 15 4 17 -32 18 -23 1 -36 -1 -29 -3 6 -3 12 -9 12 -14
0 -6 -3 -8 -8 -5 -4 2 -8 -9 -9 -26 0 -20 2 -26 7 -17 5 7 7 16 4 20 -2 4 0
10 5 13 18 12 19 -23 0 -42 -21 -24 -26 -47 -7 -36 9 5 9 2 -1 -9 -7 -9 -10
-17 -6 -17 4 0 2 -6 -4 -13 -6 -8 -9 -16 -6 -19 10 -9 12 -88 3 -88 -5 0 -5
-8 -1 -17 5 -10 8 -53 8 -95 0 -75 1 -78 23 -78 13 0 21 -4 17 -10 -3 -5 -12
-7 -19 -4 -8 3 -16 2 -19 -3 -3 -4 6 -9 19 -9 22 -2 26 2 23 23 0 3 6 10 15
15 9 5 16 14 16 20 0 7 -7 5 -17 -4 -16 -13 -24 -14 -49 -9 -4 0 -1 8 6 16 10
12 10 15 -1 15 -9 0 -10 3 -4 8 15 11 18 35 3 26 -7 -4 -9 -3 -5 2 4 4 19 9
33 10 17 1 22 -2 14 -10 -5 -5 -10 -15 -10 -20 0 -6 5 -5 12 2 7 7 17 12 22
12 6 0 3 -5 -6 -11 -10 -5 -18 -15 -18 -21 0 -7 4 -7 13 1 11 8 14 7 14 -7 0
-9 -4 -23 -10 -29 -6 -8 -6 -13 0 -13 5 0 10 -7 10 -15 0 -9 -6 -14 -14 -11
-7 3 -13 1 -13 -4 0 -6 7 -10 15 -10 8 0 15 -5 15 -11 0 -5 -6 -7 -12 -3 -10
6 -10 5 0 -8 13 -17 14 -110 0 -102 -4 3 -8 0 -8 -5 0 -6 5 -11 10 -11 6 0 10
-38 10 -95 0 -82 3 -99 20 -117 25 -27 25 -38 3 -38 -14 0 -15 2 -5 9 10 6 10
10 -1 20 -12 10 -14 3 -14 -44 1 -30 5 -55 10 -55 6 0 6 -5 0 -12 -14 -20 -10
-42 9 -46 10 -2 18 1 18 7 0 6 -6 8 -14 5 -10 -4 -14 0 -12 12 2 10 9 20 16
22 7 3 10 0 6 -7 -5 -7 -1 -9 9 -5 12 5 14 2 8 -12 -6 -16 -5 -17 9 -4 10 9
12 17 6 21 -7 4 -6 9 1 14 9 5 9 10 1 20 -6 7 -8 20 -4 29 3 9 1 16 -5 16 -6
0 -11 5 -11 11 0 5 5 7 10 4 6 -3 10 1 10 9 0 8 4 18 10 21 7 4 7 -2 1 -18 -6
-14 -7 -28 -3 -32 4 -4 8 -64 9 -133 4 -278 6 -322 15 -322 5 0 7 4 3 9 -3 5
-1 13 5 16 6 4 10 3 9 -2 -4 -25 2 -33 19 -24 10 5 22 7 28 3 14 -11 16 -162
1 -162 -9 0 -9 -2 -1 -8 7 -4 12 -20 12 -37 0 -128 3 -159 12 -145 6 9 10 10
10 3 0 -6 -4 -15 -10 -18 -5 -3 -10 -13 -10 -21 0 -8 4 -13 8 -10 5 3 9 -1 9
-9 0 -8 -4 -12 -9 -9 -4 3 -8 -4 -8 -15 0 -12 5 -21 10 -21 6 0 10 5 10 12 0
6 3 8 7 4 5 -4 -1 -14 -11 -22 -11 -7 -17 -16 -14 -20 10 -9 68 38 61 49 -3 6
-1 7 6 3 6 -4 9 -11 6 -16 -3 -4 1 -11 7 -13 10 -4 10 -6 0 -6 -8 -1 -10 -6
-5 -13 11 -19 13 -39 2 -32 -11 6 -12 -9 -2 -20 12 -12 10 -224 -3 -219 -6 2
-11 -3 -11 -12 0 -9 5 -14 12 -12 6 3 11 -5 11 -18 0 -13 -3 -22 -7 -19 -4 2
-7 -5 -6 -16 1 -11 5 -20 11 -20 5 0 1 -10 -10 -22 -19 -21 -19 -21 1 -14 11
4 16 3 11 -1 -4 -4 -24 -8 -44 -8 l-37 0 -1 -98 c0 -72 3 -97 12 -97 7 0 16
-5 20 -11 4 -7 0 -9 -13 -5 -24 8 -28 -23 -5 -40 12 -9 12 -13 2 -19 -9 -5
-11 -4 -6 3 4 7 3 12 -2 12 -5 0 -9 -69 -8 -163 1 -154 2 -162 21 -159 16 3
17 2 6 -12 -7 -9 -16 -14 -20 -12 -4 3 -7 -6 -7 -19 0 -13 4 -21 8 -19 13 8 9
-11 -4 -25 -11 -10 -10 -12 1 -9 7 2 16 -3 19 -11 2 -8 0 -11 -6 -7 -6 3 -14
1 -18 -5 -4 -7 -3 -9 4 -5 6 3 14 -3 17 -15 4 -11 9 -18 12 -15 4 3 12 1 19
-5 8 -7 14 -6 20 2 4 7 3 9 -3 6 -7 -4 -10 3 -9 18 0 14 5 25 11 25 5 0 -1 7
-13 16 -12 8 -20 20 -16 25 3 6 12 3 20 -8 7 -10 14 -13 14 -7 0 16 -25 35
-36 26 -4 -4 -2 1 5 11 7 9 10 17 6 17 -5 0 0 10 11 22 12 15 13 18 3 10 -13
-10 -18 -10 -27 1 -13 15 1 43 17 33 7 -4 9 -1 5 8 -3 9 -9 15 -12 14 -18 -2
-35 3 -29 8 3 4 2 16 -4 27 -8 14 -8 18 0 13 6 -4 11 -3 11 3 0 5 -5 13 -11
17 -8 4 -7 9 2 15 9 6 10 12 4 17 -12 9 -18 32 -7 31 20 -3 25 2 12 12 -13 9
-13 10 0 6 8 -2 14 -10 13 -16 -2 -6 2 -11 7 -11 6 0 10 7 10 15 0 8 4 15 10
15 5 0 6 -7 3 -17 -4 -9 -2 -14 3 -10 12 7 12 -132 1 -150 -5 -7 -4 -13 0 -13
5 0 9 -87 10 -192 3 -335 6 -423 15 -438 8 -12 8 -12 4 2 -3 10 -2 17 2 17 21
-3 24 3 6 17 -14 11 -16 17 -6 21 9 3 10 9 3 17 -15 18 42 16 59 -2 11 -12 9
-13 -11 -7 -21 7 -22 6 -10 -8 7 -9 17 -15 20 -12 4 2 8 -2 8 -10 0 -8 -4 -12
-8 -10 -8 6 -22 -25 -14 -33 3 -3 5 0 5 6 0 7 4 12 9 12 8 0 14 -62 12 -129
-1 -13 5 -31 11 -39 10 -13 10 -14 1 -8 -21 12 -15 -10 9 -30 17 -15 20 -16
16 -3 -5 12 -1 16 15 14 36 -4 37 -4 37 -17 0 -9 -3 -9 -12 0 -22 22 -32 12
-11 -10 20 -23 24 -52 26 -195 1 -35 4 -43 19 -43 11 0 17 4 14 9 -7 11 20 22
37 15 8 -3 14 -13 15 -22 3 -25 3 -59 0 -74 -2 -8 9 -13 32 -14 23 -1 34 -5
32 -14 -3 -11 0 -11 12 -1 12 10 14 6 12 -29 -3 -47 4 -54 56 -52 41 2 55 -21
18 -31 -26 -7 -26 -24 0 -32 11 -3 20 -11 20 -16 0 -5 16 -9 35 -9 21 0 35 -5
35 -12 0 -9 3 -8 10 2 6 10 9 4 8 -20 0 -19 -5 -41 -11 -48 -6 -7 -6 -12 -1
-11 5 1 30 1 57 0 l47 -1 0 -47 c0 -35 3 -44 10 -33 6 10 10 11 10 3 0 -19 21
-16 36 5 13 16 14 16 8 0 -4 -13 -1 -18 13 -18 16 0 19 -7 18 -43 -1 -41 -1
-42 31 -42 18 0 36 4 40 8 5 4 1 5 -7 2 -10 -4 -16 0 -16 10 0 10 6 14 14 10
8 -3 17 -5 19 -5 2 0 4 -6 4 -14 0 -8 8 -15 18 -15 9 1 51 0 93 -1 l75 -1 -4
-32 c-3 -18 -8 -37 -13 -42 -5 -7 9 -11 41 -11 30 0 47 3 43 9 -4 6 -1 7 8 1
8 -4 34 -9 59 -9 25 0 50 -4 57 -8 6 -4 14 -3 17 2 4 5 19 7 34 4 15 -3 48 -6
75 -5 26 0 45 -4 42 -8 -3 -5 0 -12 6 -16 7 -4 9 -3 5 4 -3 6 -2 13 4 17 5 3
10 0 10 -7 0 -9 3 -9 8 -2 5 7 86 10 240 10 190 -1 230 -3 216 -13 -10 -7 -20
-10 -23 -5 -9 11 -33 14 -26 2 7 -11 -8 -14 -19 -3 -3 4 -13 8 -22 9 -11 2
-12 -1 -5 -10 6 -7 8 -16 4 -19 -9 -9 -23 -9 -22 1 3 18 -2 32 -12 32 -5 0 -7
-5 -4 -10 4 -6 1 -9 -7 -8 -7 2 -12 -2 -11 -9 2 -6 -5 -11 -15 -11 -9 0 -25
-3 -35 -7 -13 -6 -16 -4 -11 9 3 9 11 13 17 9 6 -4 7 -1 2 7 -6 10 -4 12 8 7
9 -3 19 -3 21 2 3 4 -15 7 -39 7 -24 -1 -41 -4 -38 -8 2 -5 -1 -8 -6 -8 -6 0
-11 6 -11 13 0 7 -3 8 -8 2 -9 -13 -42 -16 -42 -4 0 5 -9 9 -20 9 -11 0 -20
-4 -20 -10 0 -5 6 -7 13 -4 8 3 20 -2 27 -11 12 -14 10 -16 -16 -10 -25 5 -23
3 8 -11 23 -10 35 -21 31 -28 -4 -6 1 -4 11 4 10 8 28 15 39 17 20 2 20 1 -3
-12 -24 -13 -24 -14 -2 -12 12 1 22 5 22 9 0 4 5 8 11 8 5 0 8 -4 5 -8 -3 -5
1 -9 9 -9 8 0 12 4 10 7 -3 4 6 7 20 8 14 0 22 -5 18 -11 -3 -6 -1 -7 6 -3 6
4 9 11 6 16 -3 5 -1 11 5 15 9 5 14 -6 12 -26 -1 -8 40 -5 55 4 6 4 14 1 16
-5 4 -9 6 -8 6 3 1 17 37 59 51 59 5 0 7 -7 4 -15 -4 -8 -11 -12 -17 -8 -5 3
-7 1 -4 -4 4 -6 0 -14 -9 -17 -17 -6 -10 -26 9 -26 7 0 6 4 -3 10 -13 8 -13
10 2 10 9 0 19 -6 21 -12 4 -10 6 -9 6 1 1 11 4 11 19 0 9 -7 14 -9 10 -5 -4
5 -2 16 5 24 9 13 9 14 0 8 -8 -4 -13 -1 -13 9 0 9 6 15 13 14 24 -3 37 1 37
12 0 7 -5 8 -12 3 -17 -12 -51 -11 -55 1 -4 14 70 15 79 1 6 -8 8 -8 8 0 0 18
88 15 101 -4 10 -16 10 -15 5 1 -6 19 -14 18 172 19 99 1 110 2 95 15 -10 8
-12 12 -5 8 6 -3 12 -2 12 4 0 6 8 8 18 5 14 -5 15 -4 2 5 -8 6 -23 8 -32 5
-10 -3 -18 0 -18 6 0 6 5 8 10 5 6 -3 10 -1 10 5 0 6 5 8 10 5 6 -4 9 -1 8 7
-2 9 14 14 60 16 34 2 60 7 58 11 -3 4 1 8 9 8 8 0 12 -4 9 -8 -2 -4 5 -7 16
-6 20 1 23 9 22 58 0 22 5 28 29 31 16 3 29 1 29 -2 0 -4 12 -5 26 -2 14 2 22
7 16 11 -5 3 -9 22 -9 42 0 32 3 35 29 35 19 0 27 -4 24 -13 -3 -7 2 -27 10
-45 14 -31 15 -32 9 -5 -3 17 -2 26 4 23 11 -7 9 13 -2 32 -8 12 -4 13 41 15
19 1 33 17 26 29 -8 12 -24 10 -21 -3 1 -6 -5 -13 -14 -14 -21 -4 -20 67 1 73
13 3 13 2 0 -7 -14 -10 -13 -12 10 -15 6 0 15 -8 20 -16 12 -19 13 -4 1 19 -7
13 -5 17 10 17 12 0 15 -4 9 -10 -6 -6 -5 -16 1 -29 7 -12 7 -17 1 -13 -6 3
-9 -2 -8 -11 4 -28 20 -21 21 10 1 15 -2 27 -7 27 -4 0 -3 9 4 19 7 11 16 17
20 15 4 -3 8 0 8 7 0 8 5 7 17 -2 11 -10 14 -10 9 -1 -4 6 -3 12 3 12 5 0 13
-5 16 -10 12 -20 22 0 21 40 -1 23 1 43 5 45 3 3 5 24 3 47 -2 32 -1 36 4 18
6 -19 14 -24 32 -22 21 4 22 2 11 -12 -7 -9 -9 -16 -3 -16 5 0 13 7 16 15 6
18 -17 31 -34 20 -8 -5 -11 1 -8 16 3 21 8 24 36 21 34 -4 36 2 33 88 0 14 2
19 5 13 3 -7 23 -13 45 -13 37 0 38 1 37 35 -1 20 -5 32 -11 28 -6 -4 -3 4 6
16 8 13 13 29 10 36 -3 10 2 12 19 9 l23 -5 -22 10 c-22 10 -33 51 -13 51 5 0
7 -8 4 -17 -3 -10 1 -7 9 6 14 24 15 24 26 3 15 -29 14 -37 -4 -22 -9 7 -15 8
-15 2 0 -5 7 -12 15 -16 9 -3 12 -12 9 -23 -5 -14 -4 -15 4 -4 6 8 9 27 7 43
-3 19 0 28 10 28 11 0 15 14 15 58 0 40 3 53 10 42 8 -13 10 -12 10 3 0 22 8
22 33 -1 13 -10 17 -11 12 -3 -6 10 -4 13 7 9 8 -4 15 -1 15 6 0 8 -15 12 -41
11 -39 -2 -41 0 -42 26 -1 19 3 29 12 29 8 0 14 5 14 12 0 6 3 8 6 5 4 -4 2
-12 -4 -20 -6 -7 -8 -17 -4 -23 9 -13 54 -16 46 -3 -3 6 -12 8 -20 5 -19 -7
-24 7 -8 22 8 7 14 9 14 3 0 -5 6 -11 13 -14 17 -6 19 22 3 42 -8 11 -8 13 1
7 9 -5 12 1 9 23 -2 17 -1 31 3 31 3 0 6 43 5 95 0 52 3 90 7 84 4 -8 8 -7 12
2 3 8 4 4 4 -8 -1 -13 -5 -23 -9 -23 -4 0 -8 -5 -8 -11 0 -8 6 -7 18 2 9 7 14
9 10 5 -4 -5 -3 -15 3 -23 8 -8 8 -13 1 -13 -6 0 -12 3 -15 8 -2 4 -2 1 0 -6
1 -8 -2 -10 -10 -6 -6 4 -8 3 -4 -1 4 -5 22 -10 40 -10 32 -2 33 0 33 37 0 21
-4 38 -9 38 -5 0 -6 -8 -3 -17 5 -15 4 -15 -9 1 -8 11 -15 14 -15 7 0 -7 -5
-9 -10 -6 -13 8 -3 26 13 24 26 -3 37 2 37 15 0 8 -6 17 -12 19 -10 4 -10 6 0
6 6 1 12 8 12 17 0 13 -3 14 -13 5 -14 -11 -27 -5 -27 13 0 6 4 5 9 -2 6 -10
10 -10 19 1 8 10 12 96 13 283 2 406 1 456 -13 448 -8 -5 -9 -1 -4 12 6 15 5
17 -5 7 -14 -14 -70 -18 -68 -5 1 4 1 26 0 50 -1 30 -5 41 -13 36 -7 -5 -8 -3
-2 7 12 19 14 79 2 79 -5 0 -6 -4 -3 -10 3 -5 2 -10 -2 -10 -5 0 -9 -9 -10
-20 -1 -12 3 -18 8 -14 6 3 5 -3 -2 -13 -12 -19 -53 -24 -67 -7 -4 4 0 5 9 1
13 -4 16 0 15 19 -1 21 -2 22 -13 8 -11 -15 -12 -14 -10 4 0 11 5 18 9 16 4
-3 8 -1 8 4 0 5 7 9 14 9 11 0 13 -5 5 -19 -11 -20 -4 -38 14 -37 9 0 8 2 -1
6 -6 2 -9 10 -5 16 14 23 14 49 -1 44 -7 -3 -19 0 -26 6 -10 9 -11 9 -5 -2 5
-9 4 -12 -3 -7 -8 5 -12 50 -12 140 0 92 -4 136 -12 145 -7 8 -8 11 -3 8 6 -3
12 3 12 14 1 10 -4 19 -10 19 -9 0 -9 2 -1 8 11 7 15 92 4 92 -3 0 -15 -7 -28
-15 -19 -14 -21 -14 -16 -1 4 11 0 14 -16 11 -18 -3 -20 -2 -10 10 9 11 16 12
32 2 16 -9 22 -9 25 1 3 6 8 10 12 8 4 -3 7 29 7 70 0 41 -4 74 -9 74 -4 0 -5
6 0 13 4 6 8 23 8 35 1 21 0 22 -11 7 -10 -14 -16 -14 -34 -5 -12 6 -24 9 -28
6 -3 -3 1 -6 9 -6 12 0 12 -2 0 -9 -11 -7 -9 -10 8 -16 41 -13 65 -77 28 -74
-9 0 -9 2 0 6 9 3 9 11 -3 29 -9 13 -20 22 -24 19 -5 -3 -10 1 -13 7 -3 7 -4
3 -4 -9 1 -21 9 -27 30 -24 4 0 7 -3 7 -9 0 -5 -9 -10 -21 -10 -11 0 -18 -4
-14 -10 3 -5 13 -7 23 -4 13 5 14 4 3 -4 -9 -7 -10 -12 -2 -16 6 -4 11 -2 11
3 0 6 5 11 11 11 6 0 7 -5 2 -12 -15 -25 -14 -51 2 -44 13 4 14 2 5 -15 -6
-11 -15 -17 -21 -14 -5 4 -7 11 -3 16 3 6 0 10 -7 8 -25 -3 -39 1 -39 10 0 6
10 8 23 6 22 -4 22 -4 2 11 -22 16 -23 45 -23 564 -1 113 -1 214 -1 225 0 11
0 218 -1 459 0 333 -3 443 -13 455 -10 12 -9 13 1 7 10 -6 12 64 11 361 -1
213 -6 376 -11 387 -7 13 -7 16 1 12 6 -4 11 -2 11 3 0 6 -7 11 -15 11 -8 0
-15 -9 -15 -20 0 -11 -3 -20 -8 -20 -13 0 -9 69 5 74 11 4 11 1 2 -15 -9 -18
-9 -19 9 -10 15 8 19 18 16 42 -5 39 -12 48 -23 30 -6 -9 -11 -10 -15 -2 -12
19 -35 13 -31 -9 2 -11 0 -20 -6 -20 -5 0 -9 30 -9 66 0 38 -4 63 -9 59 -5 -3
-12 -1 -16 4 -4 7 -15 7 -30 1 -17 -6 -25 -6 -25 1 0 6 -4 8 -8 5 -10 -6 -9
35 1 52 5 7 4 12 -3 12 -6 0 -8 5 -4 11 4 7 -9 10 -41 8 -32 -2 -49 1 -55 11
-6 10 -10 11 -10 3 0 -8 -15 -12 -45 -10 -31 1 -44 6 -41 14 3 7 1 15 -5 18
-5 4 -9 3 -8 -2 3 -19 -2 -33 -12 -33 -5 0 -7 6 -3 13 6 9 4 9 -8 -1 -10 -8
-19 -9 -22 -3 -3 5 0 11 6 14 7 2 10 7 7 11 -3 4 -11 0 -17 -7z m-147 -77 c3
-6 -1 -7 -9 -4 -18 7 -21 14 -7 14 6 0 13 -4 16 -10z m555 -161 c0 7 5 9 11 5
8 -4 7 -9 -2 -15 -7 -4 -17 -5 -21 -3 -4 3 -8 4 -8 2 -10 -80 -20 -112 -20
-64 0 15 -4 25 -9 22 -11 -7 -9 14 4 34 5 8 10 18 11 23 1 4 2 10 3 15 1 4 8
-2 16 -12 8 -11 15 -14 15 -7z m-737 -78 c3 8 4 4 4 -8 -1 -12 -3 -20 -6 -18
-2 3 -11 -1 -20 -7 -13 -10 -14 -10 -4 1 6 7 9 21 6 30 -4 13 -3 13 5 2 8 -11
10 -11 15 0z m745 -43 c-10 -6 -10 -10 2 -18 12 -8 9 -9 -10 -6 -44 8 -63 18
-49 27 18 11 74 9 57 -3z m-738 -68 c-8 -6 -11 -10 -6 -10 12 0 -14 -30 -27
-30 -6 0 -2 7 9 16 19 15 19 16 -1 10 -17 -5 -16 -3 5 13 14 11 27 17 30 15 2
-3 -2 -9 -10 -14z m36 -12 c5 -7 3 -8 -6 -3 -9 5 -10 1 -6 -16 6 -20 5 -21 -4
-6 -6 9 -8 22 -5 27 8 13 12 13 21 -2z m674 7 c0 -7 -30 -13 -34 -7 -3 4 4 9
15 9 10 1 19 0 19 -2z m37 -32 c0 -9 -4 -10 -14 -2 -7 6 -13 12 -13 14 0 1 6
2 13 2 8 0 14 -6 14 -14z m-737 -11 c0 -5 -7 -9 -15 -9 -8 0 -12 4 -9 9 3 4 9
8 15 8 5 0 9 -4 9 -8z m0 -26 c0 -2 -8 -10 -17 -17 -16 -13 -17 -12 -4 4 13
16 21 21 21 13z m20 -20 c0 -2 -8 -10 -17 -17 -16 -13 -17 -12 -4 4 13 16 21
21 21 13z m675 -75 c3 -5 2 -12 -3 -15 -5 -3 -9 1 -9 9 0 17 3 19 12 6z m-680
-50 c3 -5 2 -12 -3 -15 -5 -3 -9 1 -9 9 0 17 3 19 12 6z m680 -19 c-3 -3 -11
0 -18 7 -9 10 -8 11 6 5 10 -3 15 -9 12 -12z m-701 -10 c3 -5 -1 -9 -9 -9 -8
0 -12 4 -9 9 3 4 7 8 9 8 2 0 6 -4 9 -8z m-2458 -187 c-7 -18 3 -47 14 -40 4
2 6 16 4 31 -2 25 -2 25 18 7 20 -17 21 -17 15 0 -4 11 -3 16 4 12 6 -4 8 -13
5 -21 -3 -8 2 -18 10 -21 14 -5 14 -7 -2 -17 -26 -14 -44 -16 -44 -4 0 6 -7 4
-17 -3 -11 -10 -14 -10 -9 -1 4 6 3 12 -2 12 -4 0 -8 14 -8 30 0 17 4 30 9 30
5 0 7 -7 3 -15z m104 5 c0 -5 -5 -10 -11 -10 -5 0 -7 5 -4 10 3 6 8 10 11 10
2 0 4 -4 4 -10z m164 -24 c-9 -15 -19 -25 -21 -22 -5 5 30 56 35 51 2 -2 -4
-15 -14 -29z m2172 4 c0 -12 -4 -16 -9 -11 -5 5 -6 14 -3 20 10 15 12 14 12
-9z m728 2 c3 -5 -1 -9 -9 -9 -8 0 -12 4 -9 9 3 4 7 8 9 8 2 0 6 -4 9 -8z m-4
-25 c0 -2 -10 -12 -22 -23 l-23 -19 19 23 c18 21 26 27 26 19z m-2880 -11 c0
-3 -4 -8 -10 -11 -5 -3 -10 -1 -10 4 0 6 5 11 10 11 6 0 10 -2 10 -4z m2920
-20 c0 -2 -7 -7 -16 -10 -8 -3 -12 -2 -9 4 6 10 25 14 25 6z m-727 -21 c-3 -9
-8 -14 -10 -11 -3 3 -2 9 2 15 9 16 15 13 8 -4z m-38 -13 c-3 -3 -11 0 -18 7
-9 10 -8 11 6 5 10 -3 15 -9 12 -12z m-2502 -27 c-3 -9 -8 -14 -10 -11 -3 3
-2 9 2 15 9 16 15 13 8 -4z m3252 -45 c10 -11 16 -20 13 -20 -3 0 -13 9 -23
20 -10 11 -16 20 -13 20 3 0 13 -9 23 -20z m-3340 -11 c0 -8 7 -13 16 -12 10
2 15 -5 15 -21 0 -14 -4 -22 -10 -19 -5 4 -7 -1 -2 -12 5 -15 4 -16 -9 -5 -16
13 -21 35 -6 25 5 -3 12 -1 15 4 4 5 -1 8 -10 7 -8 -1 -20 -9 -25 -17 -5 -8
-9 -9 -9 -3 0 5 5 15 12 22 9 9 9 15 0 24 -16 16 -15 31 1 26 6 -3 12 -11 12
-19z m630 11 c3 -5 1 -10 -4 -10 -6 0 -11 5 -11 10 0 6 2 10 4 10 3 0 8 -4 11
-10z m1961 -25 c-1 -8 -5 -17 -8 -21 -5 -4 -4 16 1 34 3 9 9 -1 7 -13z m721
-30 c0 -8 -4 -12 -9 -9 -5 3 -6 10 -3 15 9 13 12 11 12 -6z m38 -53 c-3 -3
-11 0 -18 7 -9 10 -8 11 6 5 10 -3 15 -9 12 -12z m-44 -19 c13 -17 13 -17 -6
-3 -11 8 -22 16 -24 17 -2 2 0 3 6 3 6 0 17 -8 24 -17z m-3276 -3 c-3 -5 -12
-10 -18 -10 -7 0 -6 4 3 10 19 12 23 12 15 0z m-31 -28 c3 -5 -1 -9 -9 -9 -8
0 -12 4 -9 9 3 4 7 8 9 8 2 0 6 -4 9 -8z m2596 -2 c0 -5 -5 -10 -11 -10 -5 0
-7 5 -4 10 3 6 8 10 11 10 2 0 4 -4 4 -10z m-2587 -35 c-3 -9 -8 -14 -10 -11
-3 3 -2 9 2 15 9 16 15 13 8 -4z m735 -45 c2 -9 0 -11 -5 -5 -11 14 -63 16
-63 2 0 -6 -3 -8 -6 -4 -13 12 7 25 38 23 18 -1 33 -8 36 -16z m1852 0 c0 -5
-2 -10 -4 -10 -3 0 -8 5 -11 10 -3 6 -1 10 4 10 6 0 11 -4 11 -10z m754 2 c3
-5 -1 -9 -9 -9 -8 0 -12 4 -9 9 3 4 7 8 9 8 2 0 6 -4 9 -8z m-3369 -22 c3 -6
-1 -7 -9 -4 -18 7 -21 14 -7 14 6 0 13 -4 16 -10z m33 -25 c-3 -3 -9 2 -12 12
-6 14 -5 15 5 6 7 -7 10 -15 7 -18z m-3 -25 c-3 -5 -14 -10 -23 -9 -14 0 -13
2 3 9 27 11 27 11 20 0z m3315 -46 c0 -8 -19 -13 -24 -6 -3 5 1 9 9 9 8 0 15
-2 15 -3z m-9 -41 c13 -16 12 -17 -3 -4 -17 13 -22 21 -14 21 2 0 10 -8 17
-17z m-2483 -168 c-3 -3 -9 2 -12 12 -6 14 -5 15 5 6 7 -7 10 -15 7 -18z m-55
-22 c-10 -8 -12 -11 -5 -8 11 6 12 3 3 -14 -16 -28 -18 -27 -18 13 0 27 4 32
19 28 18 -4 18 -5 1 -19z m33 -70 c-11 -14 -30 -30 -41 -35 -12 -7 -8 0 10 17
28 27 28 29 10 36 -16 5 -13 7 11 6 l31 0 -21 -24z m-31 -3 c-3 -5 -11 -10
-16 -10 -6 0 -7 5 -4 10 3 6 11 10 16 10 6 0 7 -4 4 -10z m45 -30 c-12 -23
-16 -24 -26 -8 -4 7 -3 8 4 4 7 -4 12 -1 12 8 0 9 5 16 10 16 7 0 7 -6 0 -20z
m1595 -36 c8 -3 15 -1 15 5 0 6 5 11 10 11 16 0 12 -17 -6 -24 -8 -3 -27 1
-42 10 -25 14 -15 13 23 -2z m-425 -44 c-8 -5 -19 -10 -25 -10 -5 0 -3 5 5 10
8 5 20 10 25 10 6 0 3 -5 -5 -10z m-1905 -9 c-3 -6 2 -14 11 -19 14 -8 12 -9
-9 -9 -29 0 -33 7 -15 25 14 14 21 16 13 3z m1265 -25 c0 -2 -8 -10 -17 -17
-16 -13 -17 -12 -4 4 13 16 21 21 21 13z m195 -6 c3 -6 -1 -7 -9 -4 -18 7 -21
14 -7 14 6 0 13 -4 16 -10z m-1455 -20 c0 -5 -2 -10 -4 -10 -3 0 -8 5 -11 10
-3 6 -1 10 4 10 6 0 11 -4 11 -10z m1280 6 c0 -2 -8 -10 -17 -17 -16 -13 -17
-12 -4 4 13 16 21 21 21 13z m146 -24 c1 -7 0 -8 -3 -2 -2 5 -9 8 -14 4 -5 -3
-9 0 -9 6 0 15 23 7 26 -8z m-171 -20 c-3 -3 -11 0 -18 7 -9 10 -8 11 6 5 10
-3 15 -9 12 -12z m-1262 -11 c5 -1 5 -6 2 -11 -4 -6 -2 -17 5 -25 13 -16 -1
-28 -24 -19 -17 7 -17 7 -21 40 -1 15 3 21 14 19 9 -2 20 -4 24 -4z m1682 -21
c-8 -13 1 -13 26 0 10 6 19 8 19 6 0 -10 -41 -27 -50 -21 -10 6 -5 25 6 25 3
0 2 -4 -1 -10z m55 -15 c-7 -8 -17 -15 -23 -15 -6 0 -2 7 9 15 25 19 30 19 14
0z m0 -35 c-6 -11 -13 -20 -16 -20 -2 0 0 9 6 20 6 11 13 20 16 20 2 0 0 -9
-6 -20z m-40 -4 c0 -3 -4 -8 -10 -11 -5 -3 -10 -1 -10 4 0 6 5 11 10 11 6 0
10 -2 10 -4z m-827 -220 c4 -10 1 -13 -8 -9 -8 3 -12 9 -9 14 7 12 11 11 17
-5z m58 -9 c-10 -9 -11 -8 -5 6 3 10 9 15 12 12 3 -3 0 -11 -7 -18z m-11 -17
c8 -5 11 -10 5 -10 -5 0 -17 5 -25 10 -8 5 -10 10 -5 10 6 0 17 -5 25 -10z
m-43 -16 c-3 -3 -12 -4 -19 -1 -8 3 -5 6 6 6 11 1 17 -2 13 -5z m-752 -84 c3
-5 1 -10 -4 -10 -6 0 -11 5 -11 10 0 6 2 10 4 10 3 0 8 -4 11 -10z m3235 -322
c0 -14 -16 -16 -33 -3 -17 12 -16 13 7 11 15 0 26 -4 26 -8z m-3192 -109 c-3
-8 -7 -3 -11 10 -4 17 -3 21 5 13 5 -5 8 -16 6 -23z m35 11 c-3 -12 -8 -19
-11 -16 -5 6 5 36 12 36 2 0 2 -9 -1 -20z m3153 -15 c-1 -8 -5 -17 -8 -21 -5
-4 -4 16 1 34 3 9 9 -1 7 -13z m-60 -110 c-7 -19 -3 -19 37 1 l32 15 -25 -20
c-38 -31 -56 -32 -56 -5 0 13 4 24 9 24 5 0 7 -7 3 -15z m57 -29 c4 -10 1 -13
-8 -9 -8 3 -12 9 -9 14 7 12 11 11 17 -5z m-14 -34 c6 -12 6 -23 0 -33 -8 -12
-10 -12 -8 1 3 30 -1 41 -13 34 -7 -4 -8 -3 -4 4 10 16 14 15 25 -6z m-29 -12
c8 -5 11 -10 5 -10 -5 0 -17 5 -25 10 -8 5 -10 10 -5 10 6 0 17 -5 25 -10z
m13 -37 c3 -5 -5 -8 -18 -8 -13 0 -21 3 -18 8 2 4 10 7 18 7 8 0 16 -3 18 -7z
m24 -28 c0 -8 -4 -12 -9 -9 -5 3 -6 10 -3 15 9 13 12 11 12 -6z m-3187 -249
c0 -3 -4 -8 -10 -11 -5 -3 -10 -1 -10 4 0 6 5 11 10 11 6 0 10 -2 10 -4z m42
-16 c12 -11 17 -20 11 -20 -5 0 -18 9 -28 20 -10 11 -15 20 -11 20 4 0 16 -9
28 -20z m-46 -25 c-9 -9 -16 -13 -16 -8 0 12 22 34 28 28 2 -2 -3 -11 -12 -20z
m58 -24 c-2 -3 -9 0 -15 6 -6 6 -19 9 -28 6 -13 -4 -13 -3 -2 5 14 10 56 -6
45 -17z m-24 -12 c0 -5 5 -7 11 -4 6 4 5 -2 -2 -13 -15 -24 -18 -23 -24 7 -2
11 0 21 6 21 5 0 9 -5 9 -11z m-10 -61 c0 -4 7 -4 17 -1 11 4 14 3 9 -5 -11
-19 -26 -14 -38 13 -6 13 -15 22 -21 18 -6 -4 -7 -1 -2 7 6 10 11 9 22 -5 7
-11 13 -22 13 -27z m0 -28 c8 -5 11 -10 5 -10 -5 0 -17 5 -25 10 -8 5 -10 10
-5 10 6 0 17 -5 25 -10z m22 -34 c5 3 4 -3 -4 -15 -14 -22 -28 -28 -28 -11 0
6 4 10 10 10 5 0 8 6 6 13 -1 6 -1 9 1 4 3 -4 9 -4 15 -1z m3329 -3 c13 -16
12 -17 -3 -4 -17 13 -22 21 -14 21 2 0 10 -8 17 -17z m-5 -32 c-4 -5 -1 -11 6
-13 8 -3 6 -6 -4 -10 -11 -5 -15 -2 -13 10 5 23 4 22 11 22 3 0 3 -4 0 -9z
m-3312 -37 c7 -19 2 -18 -19 6 -16 17 -16 20 -3 15 9 -4 19 -13 22 -21z m-48
0 c-4 -12 -2 -15 9 -10 8 3 15 1 15 -4 0 -5 -11 -9 -24 -8 -20 2 -23 5 -15 20
12 22 23 24 15 2z m54 -28 c0 -3 -4 -8 -10 -11 -5 -3 -10 -1 -10 4 0 6 5 11
10 11 6 0 10 -2 10 -4z m-56 -21 c-4 -8 -10 -15 -15 -15 -4 0 -6 7 -3 15 4 8
10 15 15 15 4 0 6 -7 3 -15z m26 0 c0 -8 -4 -15 -10 -15 -5 0 -7 7 -4 15 4 8
8 15 10 15 2 0 4 -7 4 -15z m-37 -200 c-7 -21 -12 -19 -10 4 0 11 5 18 9 15 4
-3 5 -11 1 -19z m22 -62 c-2 -10 -4 -20 -5 -23 -1 -3 -2 -9 -1 -14 1 -5 -5 -3
-14 4 -14 12 -14 15 1 31 21 23 23 23 19 2z m5 -68 c7 -8 8 -15 2 -15 -5 0
-15 7 -22 15 -7 8 -8 15 -2 15 5 0 15 -7 22 -15z m10 -35 c0 -5 -7 -10 -15
-10 -8 0 -15 5 -15 10 0 6 7 10 15 10 8 0 15 -4 15 -10z m3320 -280 c0 -5 -2
-10 -4 -10 -3 0 -8 5 -11 10 -3 6 -1 10 4 10 6 0 11 -4 11 -10z m-3249 -53
c-10 -9 -11 -8 -5 6 3 10 9 15 12 12 3 -3 0 -11 -7 -18z m3275 -36 c-4 -6 -13
-11 -19 -10 -9 0 -9 2 1 6 13 5 17 24 5 22 -18 -3 -24 2 -17 12 4 7 11 6 21
-4 9 -8 12 -20 9 -26z m-149 -146 c0 -8 -4 -12 -9 -9 -5 3 -6 10 -3 15 9 13
12 11 12 -6z m-72 -205 c-3 -5 -12 -10 -18 -10 -7 0 -6 4 3 10 19 12 23 12 15
0z m-2868 -124 c0 -7 -9 -19 -19 -25 -18 -11 -18 -11 -2 14 19 29 21 30 21 11z
m38 -6 c3 -6 -1 -7 -9 -4 -18 7 -21 14 -7 14 6 0 13 -4 16 -10z m2761 -12 c5
-7 3 -8 -6 -3 -10 6 -12 4 -6 -11 5 -14 4 -16 -5 -7 -6 6 -8 16 -5 22 9 14 13
14 22 -1z m-2762 -27 c-4 -3 -9 0 -11 6 -4 10 -10 9 -26 -2 -12 -8 -26 -15
-32 -15 -5 0 3 9 20 20 22 14 32 16 42 8 8 -6 11 -14 7 -17z m2781 -11 c3 -5
1 -10 -4 -10 -6 0 -11 5 -11 10 0 6 2 10 4 10 3 0 8 -4 11 -10z m-231 -222
c-3 -4 -1 -8 5 -8 5 0 11 5 13 12 3 7 7 5 11 -6 4 -9 3 -15 -2 -11 -5 3 -12 1
-16 -5 -4 -6 -11 -7 -17 -4 -7 4 -8 2 -4 -4 4 -7 3 -12 -2 -12 -5 0 -9 11 -9
23 0 13 5 24 13 24 7 0 11 -4 8 -9z m52 -34 c0 -24 -3 -31 -11 -24 -6 5 -24 7
-41 4 l-29 -5 25 18 c14 10 30 18 35 18 6 0 8 9 7 20 -2 11 0 16 5 12 4 -5 8
-24 9 -43z m-2416 -4 c0 -5 -4 -10 -9 -10 -6 0 -13 5 -16 10 -3 6 1 10 9 10 9
0 16 -4 16 -10z m2240 -154 c0 -3 -4 -8 -10 -11 -5 -3 -10 -1 -10 4 0 6 5 11
10 11 6 0 10 -2 10 -4z m-1891 -77 c-13 -8 -6 -13 13 -10 4 0 5 -6 2 -14 -8
-19 -10 -19 -47 7 -28 19 -30 19 -16 2 16 -20 20 -44 7 -44 -5 0 -13 0 -20 0
-6 0 -3 7 8 15 13 11 14 13 3 9 -12 -4 -16 1 -14 18 1 13 3 23 4 23 0 1 17 1
37 2 24 0 32 -2 23 -8z m1707 -26 c-3 -4 -6 0 -6 7 0 9 -7 7 -22 -6 -14 -12
-18 -13 -10 -3 6 9 8 20 4 24 -4 5 -1 5 6 1 7 -4 12 -2 12 6 0 8 5 6 11 -5 6
-10 8 -21 5 -24z m-1486 -73 c-6 -11 -13 -20 -16 -20 -2 0 0 9 6 20 6 11 13
20 16 20 2 0 0 -9 -6 -20z m49 -1 c-8 -16 -39 -17 -39 -2 0 3 7 2 16 -1 11 -4
15 -2 11 7 -3 8 1 14 8 14 10 0 11 -5 4 -18z m1204 -4 c-3 -8 -10 -15 -15 -15
-7 0 -6 5 1 13 6 8 7 18 3 22 -4 5 -2 5 5 1 7 -4 10 -13 6 -21z m32 15 c3 -5
1 -10 -4 -10 -6 0 -11 5 -11 10 0 6 2 10 4 10 3 0 8 -4 11 -10z m-4 -50 c5 0
9 -5 9 -11 0 -8 -5 -8 -15 1 -8 7 -14 20 -14 29 1 13 2 13 6 -1 2 -10 9 -18
14 -18z m-1256 9 c11 -16 1 -19 -13 -3 -7 8 -8 14 -3 14 5 0 13 -5 16 -11z
m1229 -15 c3 -8 2 -12 -4 -9 -6 3 -10 10 -10 16 0 14 7 11 14 -7z m-1244 2 c0
-3 -4 -8 -10 -11 -5 -3 -10 -1 -10 4 0 6 5 11 10 11 6 0 10 -2 10 -4z m604
-61 c-4 -8 -10 -15 -15 -15 -19 0 -24 -2 -38 -13 -12 -10 -13 -9 -8 6 4 10 7
21 7 23 0 3 4 2 10 -1 5 -3 18 -1 27 4 23 14 23 14 17 -4z m161 -6 c8 14 28
14 23 0 -2 -6 -7 -10 -12 -9 -5 1 -12 -4 -17 -11 -9 -16 -37 -20 -45 -8 -3 5
2 12 11 15 10 4 14 13 11 23 -5 13 -3 12 8 -2 9 -12 16 -14 21 -8z m-225 2 c0
-6 -4 -12 -8 -15 -5 -3 -9 1 -9 9 0 8 4 15 9 15 4 0 8 -4 8 -9z m160 4 c0 -2
-6 -8 -13 -14 -10 -8 -14 -7 -14 2 0 8 6 14 14 14 7 0 13 -1 13 -2z m152 -13
c3 -11 0 -19 -8 -19 -16 0 -16 0 -8 21 8 21 11 20 16 -2z"/>
<path d="M4265 5451 c-3 -5 -2 -12 3 -15 5 -3 9 1 9 9 0 17 -3 19 -12 6z"/>
<path d="M4270 5356 c0 -2 7 -6 15 -10 8 -3 15 -1 15 4 0 6 -7 10 -15 10 -8 0
-15 -2 -15 -4z"/>
<path d="M1150 4842 c0 -7 6 -12 13 -12 9 0 9 -2 -1 -9 -11 -7 -11 -9 2 -14
24 -9 28 8 6 28 -12 10 -20 13 -20 7z"/>
<path d="M1036 3792 c-2 -4 2 -16 10 -27 8 -10 14 -14 14 -8 0 7 -5 15 -10 18
-6 4 -8 11 -5 16 4 5 4 9 1 9 -3 0 -7 -3 -10 -8z"/>
<path d="M2050 366 c0 -2 8 -10 18 -17 15 -13 16 -12 3 4 -13 16 -21 21 -21
13z"/>
<path d="M4026 5718 c3 -5 10 -6 15 -3 13 9 11 12 -6 12 -8 0 -12 -4 -9 -9z"/>
<path d="M3586 5502 c-3 -5 1 -9 9 -9 8 0 12 4 9 9 -3 4 -7 8 -9 8 -2 0 -6 -4
-9 -8z"/>
<path d="M3537 5455 c-4 -8 -3 -16 1 -19 4 -3 9 4 9 15 2 23 -3 25 -10 4z"/>
<path d="M3569 5443 c-13 -16 -12 -17 4 -4 9 7 17 15 17 17 0 8 -8 3 -21 -13z"/>
<path d="M3586 5362 c-3 -5 1 -15 8 -21 11 -10 14 -9 12 3 -3 21 -13 29 -20
18z"/>
<path d="M1585 4760 c-3 -6 1 -7 9 -4 18 7 21 14 7 14 -6 0 -13 -4 -16 -10z"/>
<path d="M1675 4590 c3 -5 8 -10 11 -10 2 0 4 5 4 10 0 6 -5 10 -11 10 -5 0
-7 -4 -4 -10z"/>
<path d="M1700 4560 c8 -5 20 -10 25 -10 6 0 3 5 -5 10 -8 5 -19 10 -25 10 -5
0 -3 -5 5 -10z"/>
<path d="M953 4303 c4 -3 2 -12 -4 -19 -7 -9 -6 -12 8 -10 10 2 17 6 16 9 -2
4 -3 12 -3 17 0 6 -5 10 -12 10 -6 0 -8 -3 -5 -7z"/>
<path d="M1786 4242 c-3 -5 1 -9 9 -9 8 0 12 4 9 9 -3 4 -7 8 -9 8 -2 0 -6 -4
-9 -8z"/>
<path d="M1748 4208 c2 -10 6 -18 7 -18 1 0 5 8 7 18 3 11 0 19 -7 19 -7 0
-10 -8 -7 -19z"/>
<path d="M1775 4209 c-4 -6 -5 -12 -2 -15 2 -3 7 2 10 11 7 17 1 20 -8 4z"/>
<path d="M930 4200 c0 -9 14 -14 33 -11 4 0 7 -4 7 -11 0 -6 2 -9 5 -6 3 3 2
13 -1 22 -5 14 -9 15 -15 4 -7 -10 -9 -10 -9 0 0 6 -4 12 -10 12 -5 0 -10 -4
-10 -10z"/>
<path d="M923 4166 c0 -7 6 -13 14 -13 7 0 13 4 13 8 0 4 -6 9 -13 12 -8 3
-14 0 -14 -7z"/>
<path d="M986 4163 c-6 -14 -5 -15 5 -6 7 7 10 15 7 18 -3 3 -9 -2 -12 -12z"/>
<path d="M1748 4173 c7 -3 16 -2 19 1 4 3 -2 6 -13 5 -11 0 -14 -3 -6 -6z"/>
<path d="M981 4124 c0 -11 3 -14 6 -6 3 7 2 16 -1 19 -3 4 -6 -2 -5 -13z"/>
<path d="M937 4089 c7 -7 15 -10 18 -7 3 3 -2 9 -12 12 -14 6 -15 5 -6 -5z"/>
<path d="M3085 4060 c-2 -3 9 -6 25 -6 17 0 27 2 25 5 -8 7 -45 9 -50 1z"/>
<path d="M3177 4058 c2 -5 13 -8 23 -8 10 0 21 3 23 8 3 4 -8 7 -23 7 -15 0
-26 -3 -23 -7z"/>
<path d="M3244 4055 c-10 -8 -14 -15 -9 -15 6 0 4 -4 -4 -9 -8 -5 -16 -17 -17
-25 -1 -9 2 -14 7 -10 5 3 7 9 4 14 -3 4 2 11 11 14 9 4 14 9 11 13 -4 3 1 12
11 19 9 7 14 14 11 14 -3 0 -14 -7 -25 -15z"/>
<path d="M3141 4041 c-10 -7 -7 -9 12 -8 14 1 23 5 20 10 -6 9 -15 9 -32 -2z"/>
<path d="M3255 4020 c-3 -5 -1 -10 4 -10 6 0 11 5 11 10 0 6 -2 10 -4 10 -3 0
-8 -4 -11 -10z"/>
<path d="M3155 4010 c3 -5 8 -10 11 -10 2 0 4 5 4 10 0 6 -5 10 -11 10 -5 0
-7 -4 -4 -10z"/>
<path d="M2826 3922 c-3 -5 1 -9 9 -9 8 0 12 4 9 9 -3 4 -7 8 -9 8 -2 0 -6 -4
-9 -8z"/>
<path d="M2189 3883 c-1 -2 -2 -6 -3 -10 -1 -5 -5 -14 -10 -22 -7 -10 -6 -12
4 -6 10 6 12 4 6 -10 -5 -15 -4 -16 8 -6 11 10 17 8 25 -6 6 -10 11 -12 11 -5
0 6 5 12 11 12 5 0 7 -6 3 -12 -4 -8 -3 -9 2 -5 12 11 15 77 3 77 -6 0 -7 -4
-4 -10 3 -5 1 -10 -4 -10 -6 0 -11 4 -11 9 0 8 -38 12 -41 4z m24 -19 c-3 -9
2 -12 17 -9 18 3 20 2 10 -10 -9 -11 -16 -11 -29 -3 -20 12 -24 35 -5 35 7 0
10 -6 7 -13z"/>
<path d="M2591 3873 c7 -12 15 -20 18 -17 3 2 -3 12 -13 22 -17 16 -18 16 -5
-5z"/>
<path d="M2559 3853 c-13 -17 -13 -17 5 -3 18 14 19 13 13 -3 -4 -10 -3 -16 2
-12 5 3 12 -1 14 -7 3 -7 6 -8 6 -2 1 5 -5 18 -12 28 -12 17 -14 17 -28 -1z"/>
<path d="M2610 3819 c0 -5 5 -7 10 -4 6 3 10 8 10 11 0 2 -4 4 -10 4 -5 0 -10
-5 -10 -11z"/>
<path d="M1890 3796 c0 -8 4 -17 9 -20 5 -4 7 3 4 14 -6 23 -13 26 -13 6z"/>
<path d="M1860 3792 c0 -6 -8 -9 -17 -6 -15 5 -16 4 -3 -5 16 -11 40 3 27 16
-4 3 -7 1 -7 -5z"/>
<path d="M2050 3791 c0 -6 4 -13 10 -16 6 -3 7 1 4 9 -7 18 -14 21 -14 7z"/>
<path d="M2020 3772 c9 -19 30 -23 30 -5 0 4 -3 3 -7 0 -3 -4 -12 1 -20 11
-13 15 -13 15 -3 -6z"/>
<path d="M1876 3755 c4 -8 8 -15 10 -15 2 0 4 7 4 15 0 8 -4 15 -10 15 -5 0
-7 -7 -4 -15z"/>
<path d="M2010 3746 c0 -3 9 -10 20 -16 11 -6 20 -8 20 -6 0 3 -9 10 -20 16
-11 6 -20 8 -20 6z"/>
<path d="M2057 3739 c7 -7 15 -10 18 -7 3 3 -2 9 -12 12 -14 6 -15 5 -6 -5z"/>
<path d="M1864 3708 c-3 -11 -11 -15 -22 -12 -14 5 -15 4 -2 -5 13 -9 13 -11
0 -12 -10 0 -9 -3 4 -8 20 -8 33 -45 13 -38 -7 3 -11 11 -9 18 3 11 1 12 -10
1 -11 -11 -10 -14 2 -22 8 -5 25 -8 38 -5 20 3 27 -5 23 -27 0 -5 6 -8 14 -8
20 0 19 7 -5 32 -11 12 -17 24 -12 27 4 3 8 19 9 35 0 16 -2 25 -5 20 -9 -12
-32 -16 -32 -6 0 5 10 14 23 20 l22 10 -23 -1 c-12 -1 -24 -9 -28 -19z m16
-28 c0 13 1 13 10 0 5 -9 5 -19 0 -26 -6 -6 -6 -15 -2 -19 4 -5 1 -5 -6 -1 -7
4 -10 11 -7 16 3 5 1 11 -5 15 -5 3 -10 12 -10 18 0 7 4 6 10 -3 9 -13 10 -13
10 0z"/>
<path d="M1068 3688 c-10 -10 -14 -18 -9 -18 10 0 36 29 30 34 -2 1 -12 -6
-21 -16z"/>
<path d="M1070 3651 c13 -10 13 -12 0 -22 -13 -9 -13 -10 0 -6 8 2 15 10 15
17 0 7 -7 15 -15 17 -13 4 -13 3 0 -6z"/>
<path d="M1030 3630 c0 -5 5 -10 11 -10 5 0 7 5 4 10 -3 6 -8 10 -11 10 -2 0
-4 -4 -4 -10z"/>
<path d="M1948 3613 c7 -3 16 -2 19 1 4 3 -2 6 -13 5 -11 0 -14 -3 -6 -6z"/>
<path d="M1845 3571 c-8 -14 10 -22 30 -15 13 5 14 8 3 15 -17 11 -26 11 -33
0z"/>
<path d="M1160 3341 c0 -4 -12 -8 -26 -7 -29 1 -42 -28 -23 -50 7 -8 6 -14 -3
-17 -8 -4 -7 -6 5 -6 9 -1 17 4 17 10 0 5 5 7 10 4 6 -4 8 -11 5 -16 -3 -5 1
-6 8 -3 8 3 17 14 20 25 3 10 1 17 -3 14 -5 -3 -11 -1 -15 5 -3 5 -2 10 2 10
5 0 9 9 10 20 1 11 0 20 -3 20 -2 0 -4 -4 -4 -9z m-10 -23 c0 -11 -12 -10 -30
2 -12 7 -10 9 8 7 12 0 22 -5 22 -9z m-9 -18 c10 -6 19 -15 19 -21 0 -6 -5 -7
-12 -2 -7 4 -17 8 -22 8 -5 0 -11 6 -13 13 -6 15 2 15 28 2z"/>
<path d="M4415 3300 c-3 -5 -1 -10 4 -10 6 0 11 5 11 10 0 6 -2 10 -4 10 -3 0
-8 -4 -11 -10z"/>
<path d="M4390 3238 c0 -4 4 -8 9 -8 6 0 12 4 15 8 3 5 -1 9 -9 9 -8 0 -15 -4
-15 -9z"/>
<path d="M4350 3198 c0 -6 6 -8 14 -5 8 3 17 2 20 -4 2 -5 3 -4 2 2 -3 15 -36
21 -36 7z"/>
<path d="M1113 3173 c0 -10 4 -10 16 -1 9 7 18 13 20 15 2 1 -5 1 -16 0 -11 0
-20 -7 -20 -14z"/>
<path d="M4414 3172 c3 -5 0 -13 -6 -15 -9 -4 -10 -6 -1 -6 17 -1 25 16 12 25
-7 4 -9 3 -5 -4z"/>
<path d="M4371 3131 c-8 -14 -7 -22 4 -31 16 -13 35 -6 34 13 0 9 -2 9 -6 0
-7 -20 -19 -15 -20 7 -1 13 2 18 9 14 7 -4 8 -2 4 4 -10 16 -14 15 -25 -7z"/>
<path d="M4350 2962 c0 -4 10 -13 23 -21 22 -14 22 -14 3 8 -20 22 -26 25 -26
13z"/>
<path d="M1220 2875 c-19 -14 -28 -25 -21 -25 11 0 11 -3 0 -16 -10 -13 -10
-17 2 -25 12 -7 12 -9 -1 -9 -12 0 -13 -2 -1 -9 11 -7 11 -9 0 -14 -10 -4 -9
-6 4 -6 9 -1 17 -5 17 -11 0 -5 -5 -9 -12 -7 -8 1 -12 -17 -13 -55 0 -31 3
-54 7 -52 4 3 8 -1 8 -8 0 -10 2 -10 9 1 5 8 11 9 15 3 3 -5 -1 -13 -10 -16
-13 -5 -14 -9 -4 -21 7 -8 17 -15 22 -15 6 0 4 8 -3 17 -8 9 -9 14 -4 11 6 -4
17 -3 25 3 11 6 12 9 2 9 -8 0 -10 5 -5 13 10 16 11 77 1 71 -4 -3 -8 -1 -8 5
0 5 5 13 10 16 6 4 7 12 3 18 -11 18 -12 37 -3 37 10 0 8 20 -4 38 -4 7 -3 19
4 27 8 9 8 15 0 20 -6 3 -8 11 -5 16 10 14 1 11 -35 -16z m33 -2 c4 -3 2 -12
-4 -20 -8 -9 -8 -17 0 -26 6 -8 8 -16 6 -19 -11 -11 -13 -48 -4 -54 6 -4 6
-11 -2 -20 -7 -9 -8 -19 -2 -26 8 -11 10 -38 4 -64 0 -4 -7 -2 -13 4 -7 6 -17
11 -23 11 -5 1 -10 21 -10 45 -1 25 3 44 9 43 6 -1 11 8 12 21 1 12 -3 22 -8
22 -5 0 -7 4 -3 9 3 5 1 13 -5 16 -8 5 -7 11 1 21 6 8 8 14 4 14 -4 0 -2 7 5
15 14 16 23 19 33 8z"/>
<path d="M1225 2860 c-3 -5 -2 -10 4 -10 5 0 13 5 16 10 3 6 2 10 -4 10 -5 0
-13 -4 -16 -10z"/>
<path d="M1217 2833 c-3 -5 1 -16 8 -26 10 -15 14 -15 18 -3 6 16 -18 42 -26
29z"/>
<path d="M1230 2737 c-8 -7 -15 -27 -16 -44 0 -18 2 -31 4 -28 3 3 11 0 17 -5
9 -7 12 -4 11 13 -1 12 -5 28 -10 35 -4 7 -2 19 4 27 15 18 10 19 -10 2z m6
-53 c1 -9 0 -13 -4 -10 -3 4 -7 14 -8 22 -1 9 0 13 4 10 3 -4 7 -14 8 -22z"/>
<path d="M1194 2551 c0 -75 1 -79 21 -76 32 3 44 13 42 35 -2 24 -22 27 -31 4
-9 -23 -8 -24 12 -18 14 5 14 4 2 -4 -10 -8 -18 -7 -28 1 -10 8 -11 12 -3 15
9 3 9 8 0 18 -10 12 -8 13 7 7 16 -6 17 -4 7 9 -7 8 -9 19 -5 23 4 5 1 5 -5 1
-9 -5 -11 -2 -7 8 3 9 10 13 16 10 5 -3 7 -12 4 -20 -7 -19 12 -28 29 -14 12
10 10 16 -18 35 -17 12 -31 27 -29 33 1 7 -1 12 -6 12 -4 0 -8 -36 -8 -79z"/>
<path d="M4593 2345 c0 -8 4 -12 9 -9 5 3 6 10 3 15 -9 13 -12 11 -12 -6z"/>
<path d="M4542 2327 c10 -8 15 -16 12 -19 -2 -3 2 -8 10 -11 11 -4 13 -1 9 10
-5 12 -3 14 8 8 8 -4 12 -6 9 -2 -3 3 -9 6 -15 7 -5 1 -19 6 -30 12 -18 8 -19
8 -3 -5z"/>
<path d="M4659 2073 c-13 -17 -13 -17 6 -3 11 8 22 16 24 17 2 2 0 3 -6 3 -6
0 -17 -8 -24 -17z"/>
<path d="M1226 2020 c4 -82 3 -77 14 -60 6 9 5 17 -3 23 -8 6 -8 7 3 4 8 -2
14 -13 12 -23 -2 -15 -1 -16 6 -4 8 12 10 77 3 100 0 3 -9 6 -20 6 -15 0 -18
-7 -15 -46z m22 4 c0 -17 -3 -22 -8 -13 -5 6 -6 18 -3 26 8 19 11 16 11 -13z"/>
<path d="M4634 1982 c0 -44 2 -51 9 -34 6 12 14 22 19 22 4 0 8 5 8 11 0 8 -4
8 -15 -1 -12 -10 -14 -7 -10 19 2 17 0 33 -3 35 -4 2 -7 -21 -8 -52z"/>
<path d="M4680 1966 c0 -8 4 -17 9 -20 5 -4 7 3 4 14 -6 23 -13 26 -13 6z"/>
<path d="M4655 1940 c-9 -15 3 -29 25 -27 18 1 18 2 3 19 -19 21 -20 21 -28 8z
m20 -10 c3 -5 1 -10 -4 -10 -6 0 -11 5 -11 10 0 6 2 10 4 10 3 0 8 -4 11 -10z"/>
<path d="M1236 1911 c-4 -5 -2 -12 3 -15 5 -4 12 -2 15 3 4 5 2 12 -3 15 -5 4
-12 2 -15 -3z"/>
<path d="M4627 1896 c-4 -10 -1 -13 9 -9 8 3 14 -1 14 -11 0 -9 4 -16 10 -16
6 0 5 10 -2 25 -13 28 -23 32 -31 11z"/>
<path d="M4677 1894 c7 -3 9 -13 6 -22 -4 -14 -3 -14 5 -2 12 16 7 30 -11 29
-9 0 -9 -2 0 -5z"/>
<path d="M1259 1878 c-6 -20 -6 -39 0 -42 4 -3 7 6 7 20 0 20 -4 32 -7 22z"/>
<path d="M4627 1856 c-4 -11 -3 -15 4 -10 7 4 9 -1 5 -17 -3 -13 -3 -19 0 -12
3 7 13 9 22 6 10 -3 13 -2 6 4 -6 4 -15 16 -21 27 -9 16 -11 17 -16 2z"/>
<path d="M4627 1787 c-3 -7 3 -13 14 -13 13 0 15 3 7 13 -6 7 -12 13 -13 13
-2 0 -5 -6 -8 -13z"/>
<path d="M4680 1780 c-9 -6 -10 -10 -3 -10 6 0 15 5 18 10 8 12 4 12 -15 0z"/>
<path d="M4633 1733 c0 -9 4 -10 14 -2 7 6 13 12 13 14 0 1 -6 2 -13 2 -8 0
-14 -6 -14 -14z"/>
<path d="M1195 1730 c3 -5 8 -10 11 -10 2 0 4 5 4 10 0 6 -5 10 -11 10 -5 0
-7 -4 -4 -10z"/>
<path d="M1197 1672 c-10 -13 -9 -14 3 -7 20 13 53 13 63 0 5 -6 7 -4 5 5 -6
19 -55 21 -71 2z"/>
<path d="M1230 1657 c0 -2 6 -10 14 -16 11 -9 16 -9 22 1 4 7 4 10 -1 6 -4 -4
-14 -3 -22 3 -7 6 -13 9 -13 6z"/>
<path d="M1215 1620 c3 -5 8 -10 11 -10 2 0 4 5 4 10 0 6 -5 10 -11 10 -5 0
-7 -4 -4 -10z"/>
<path d="M4536 1338 c3 -5 10 -6 15 -3 13 9 11 12 -6 12 -8 0 -12 -4 -9 -9z"/>
<path d="M4575 1341 c-3 -5 -2 -12 3 -15 5 -3 9 1 9 9 0 17 -3 19 -12 6z"/>
<path d="M1304 1328 c-4 -6 -3 -8 3 -5 6 4 13 0 17 -8 3 -8 1 -17 -4 -20 -12
-8 -13 -25 -2 -25 16 0 31 47 19 59 -14 14 -24 14 -33 -1z"/>
<path d="M1337 1253 c-10 -9 -9 -23 1 -23 5 0 9 7 9 15 0 17 -1 18 -10 8z"/>
<path d="M1374 1052 c0 -32 4 -38 23 -40 12 -1 27 -3 34 -4 17 -4 21 38 4 52
-15 12 -35 6 -35 -12 0 -6 7 -5 18 3 16 13 16 13 2 -5 -14 -18 -13 -19 3 -13
10 4 16 3 12 -2 -3 -6 -14 -9 -24 -8 -13 1 -18 8 -16 24 1 13 -3 27 -10 33 -8
7 -11 0 -11 -28z"/>
<path d="M1430 981 c0 -6 4 -13 10 -16 6 -3 7 1 4 9 -7 18 -14 21 -14 7z"/>
<path d="M1510 840 c0 -5 5 -10 10 -10 6 0 10 5 10 10 0 6 -4 10 -10 10 -5 0
-10 -4 -10 -10z"/>
<path d="M4269 763 c-13 -16 -12 -17 4 -4 9 7 17 15 17 17 0 8 -8 3 -21 -13z"/>
<path d="M4210 725 c0 -7 30 -13 34 -7 3 4 -4 9 -15 9 -10 1 -19 0 -19 -2z"/>
<path d="M1593 673 c0 -9 4 -10 14 -2 7 6 13 12 13 14 0 1 -6 2 -13 2 -8 0
-14 -6 -14 -14z"/>
<path d="M4236 673 c-6 -14 -5 -15 5 -6 7 7 10 15 7 18 -3 3 -9 -2 -12 -12z"/>
<path d="M1650 630 c-9 -6 -10 -10 -3 -10 6 0 15 5 18 10 8 12 4 12 -15 0z"/>
<path d="M1676 625 c-9 -26 -7 -32 5 -12 6 10 9 21 6 23 -2 3 -7 -2 -11 -11z"/>
<path d="M1653 598 c3 -9 1 -19 -6 -22 -9 -3 -9 -5 0 -5 18 -1 23 13 11 29 -8
12 -9 12 -5 -2z"/>
<path d="M1675 570 c-3 -5 -1 -10 4 -10 6 0 11 5 11 10 0 6 -2 10 -4 10 -3 0
-8 -4 -11 -10z"/>
<path d="M1761 536 c-21 -12 -22 -14 -5 -20 10 -4 15 -4 11 0 -4 4 1 13 11 20
22 17 14 17 -17 0z"/>
<path d="M3994 514 c1 -8 4 -15 7 -16 2 -2 3 -1 2 1 -2 2 2 9 7 16 7 8 5 12
-4 12 -8 0 -13 -6 -12 -13z"/>
<path d="M1779 508 c-6 -21 -5 -37 2 -32 5 3 7 9 4 14 -3 5 3 11 12 13 17 4
17 5 1 6 -10 0 -18 0 -19 -1z"/>
<path d="M3908 433 c6 -2 12 -9 12 -14 0 -6 -5 -7 -12 -3 -7 4 -8 3 -4 -5 4
-6 12 -8 18 -5 7 5 9 2 6 -8 -4 -8 0 -15 7 -15 11 0 11 6 -1 29 -8 15 -20 28
-27 27 -9 0 -9 -2 1 -6z"/>
<path d="M2246 267 c3 -10 9 -15 12 -12 3 3 0 11 -7 18 -10 9 -11 8 -5 -6z"/>
<path d="M2180 246 c0 -2 7 -6 15 -10 8 -3 15 -1 15 4 0 6 -7 10 -15 10 -8 0
-15 -2 -15 -4z"/>
<path d="M2224 225 c-10 -8 -14 -14 -9 -15 15 0 40 18 34 24 -3 3 -14 -1 -25
-9z"/>
<path d="M2730 175 c-11 -13 -10 -14 4 -9 9 3 16 10 16 15 0 13 -6 11 -20 -6z"/>
<path d="M2549 163 c-13 -16 -12 -17 4 -4 16 13 21 21 13 21 -2 0 -10 -8 -17
-17z"/>
<path d="M2590 177 c0 -2 6 -10 14 -16 11 -9 16 -9 22 1 4 7 4 10 -1 6 -4 -4
-14 -3 -22 3 -7 6 -13 9 -13 6z"/>
<path d="M2757 167 c-3 -7 1 -21 9 -32 8 -10 14 -14 14 -8 0 7 -4 14 -10 18
-5 3 -7 12 -3 20 3 8 3 15 0 15 -3 0 -7 -6 -10 -13z"/>
<path d="M2662 162 c-8 -6 -2 -9 18 -9 20 0 26 3 18 9 -7 4 -15 8 -18 8 -3 0
-11 -4 -18 -8z"/>
<path d="M3224 162 c-7 -4 -1 -15 16 -29 19 -15 27 -18 27 -8 0 8 -3 13 -6 11
-3 -2 -12 2 -18 9 -10 11 -9 15 5 18 12 3 13 5 2 6 -8 0 -20 -3 -26 -7z"/>
<path d="M2633 135 c0 -7 6 -11 14 -8 7 3 13 6 13 8 0 2 -6 5 -13 8 -8 3 -14
-1 -14 -8z"/>
<path d="M2730 146 c0 -4 7 -14 15 -22 8 -9 15 -11 15 -6 0 5 -7 15 -15 22 -8
7 -15 9 -15 6z"/>
<path d="M3320 135 c-11 -13 -15 -13 -21 -3 -6 9 -9 9 -9 1 0 -21 17 -23 35
-3 10 11 16 20 13 20 -3 0 -11 -7 -18 -15z"/>
<path d="M2670 136 c0 -2 8 -10 18 -17 15 -13 16 -12 3 4 -13 16 -21 21 -21
13z"/>
<path d="M2793 126 c0 -7 6 -13 14 -13 7 0 13 4 13 8 0 4 -6 9 -13 12 -8 3
-14 0 -14 -7z"/>
<path d="M3194 127 c-4 -7 -4 -9 1 -5 4 4 14 3 22 -3 8 -7 13 -8 13 -1 0 15
-28 23 -36 9z"/>
</g>
</svg>
